HIERARCHY
ROOT root
{
	OFFSET	0	13.1	24.9
	CHANNELS 6  Xposition Yposition Zposition Xrotation Yrotation Zrotation
	JOINT spine_1
	{
		OFFSET	0	9.99999	0
		CHANNELS 3  Xrotation Yrotation Zrotation
		JOINT spine_2
		{
			OFFSET	0	112	-10
			CHANNELS 3  Xrotation Yrotation Zrotation
			JOINT spine_3
			{
				OFFSET	0	206.5	19.3
				CHANNELS 3  Xrotation Yrotation Zrotation
				JOINT spine_4
				{
					OFFSET	0	110.4	14.6
					CHANNELS 3  Xrotation Yrotation Zrotation
					JOINT neck_1
					{
						OFFSET	0	71.8	-50.3
						CHANNELS 3  Xrotation Yrotation Zrotation
						JOINT neck_2
						{
							OFFSET	0	86.2	-25.8
							CHANNELS 3  Xrotation Yrotation Zrotation
							JOINT head_ee
							{
								OFFSET	0	179.8	-8.7
								CHANNELS 3  Xrotation Yrotation Zrotation
								End Site
								{
									OFFSET	1	0	0
								}
							}
						}
					}
					JOINT left_clavicle
					{
						OFFSET	-43.2	22.4	-70.8
						CHANNELS 3  Xrotation Yrotation Zrotation
						JOINT left_shoulder
						{
							OFFSET	-93.9	-5.79999	48.7
							CHANNELS 3  Xrotation Yrotation Zrotation
							JOINT left_elbow
							{
								OFFSET	-291.4	-30.8	15.2
								CHANNELS 3  Xrotation Yrotation Zrotation
								JOINT left_lowarm_twist
								{
									OFFSET	-110.7	-3.89999	13.6
									CHANNELS 3  Xrotation Yrotation Zrotation
									JOINT left_hand
									{
										OFFSET	-110.7	-3.89999	13.6
										CHANNELS 3  Xrotation Yrotation Zrotation
										JOINT left_ee
										{
											OFFSET	-80.8	-5.10001	12.1
											CHANNELS 3  Xrotation Yrotation Zrotation
											End Site
											{
												OFFSET	1	0	0
											}
										}
									}
								}
							}
						}
					}
					JOINT right_clavicle
					{
						OFFSET	43.2	22.4	-70.8
						CHANNELS 3  Xrotation Yrotation Zrotation
						JOINT right_shoulder
						{
							OFFSET	93.9	-5.79999	48.7
							CHANNELS 3  Xrotation Yrotation Zrotation
							JOINT right_elbow
							{
								OFFSET	291.4	-30.8	15.2
								CHANNELS 3  Xrotation Yrotation Zrotation
								JOINT right_lowarm_twist
								{
									OFFSET	110.7	-3.89999	13.6
									CHANNELS 3  Xrotation Yrotation Zrotation
									JOINT right_hand
									{
										OFFSET	110.7	-3.89999	13.6
										CHANNELS 3  Xrotation Yrotation Zrotation
										JOINT right_ee
										{
											OFFSET	80.8	-5.10001	12.1
											CHANNELS 3  Xrotation Yrotation Zrotation
											End Site
											{
												OFFSET	1	0	0
											}
										}
									}
								}
							}
						}
					}
				}
			}
		}
	}
	JOINT left_hip
	{
		OFFSET	-82.8	-127.5	0.300001
		CHANNELS 3  Xrotation Yrotation Zrotation
		JOINT left_knee
		{
			OFFSET	-28.2	-396.7	2.2
			CHANNELS 3  Xrotation Yrotation Zrotation
			JOINT left_ankle
			{
				OFFSET	-11.7	-411.3	35.4
				CHANNELS 3  Xrotation Yrotation Zrotation
				JOINT left_toes
				{
					OFFSET	0	-60	-88.6
					CHANNELS 3  Xrotation Yrotation Zrotation
					JOINT left_foot_ee
					{
						OFFSET	-22.5	-16.5	-42.2
						CHANNELS 3  Xrotation Yrotation Zrotation
						End Site
						{
							OFFSET	1	0	0
						}
					}
				}
			}
		}
	}
	JOINT right_hip
	{
		OFFSET	82.8	-127.5	0.300001
		CHANNELS 3  Xrotation Yrotation Zrotation
		JOINT right_knee
		{
			OFFSET	28.2	-396.7	2.2
			CHANNELS 3  Xrotation Yrotation Zrotation
			JOINT right_ankle
			{
				OFFSET	11.7	-411.3	35.4
				CHANNELS 3  Xrotation Yrotation Zrotation
				JOINT right_toes
				{
					OFFSET	0	-60	-88.6
					CHANNELS 3  Xrotation Yrotation Zrotation
					JOINT right_foot_ee
					{
						OFFSET	22.5	-16.5	-42.2
						CHANNELS 3  Xrotation Yrotation Zrotation
						End Site
						{
							OFFSET	1	0	0
						}
					}
				}
			}
		}
	}
}
MOTION
Frames: 14
Frame Time: 0.02
3177.02 653.055 -1669.29 1.45011404361 52.8124967412 1.43188570523 1.64199 0.0986699 -0.853031 1.64238 0.152748 -0.845024 1.6401 0.304105 -0.803071 1.63925 0.173463 -0.841017 -17.6487 18.5132 8.11107 -18.6998 31.2251 14.9342 -0.0 0.0 -0.0 3.7246 24.0704 7.83463 -35.4175 -11.282 65.3599 0.809886 -21.8602 0.156403 -15.0845 -0.768498 1.76349 1.66252 15.6639 16.9158 -0.0 0.0 -0.0 10.274 14.883 -20.3078 0.408247 48.2311 -52.5437 1.58204 38.0829 -0.546052 -7.67122 0.332593 -0.921841 -1.55139 13.4797 16.3776 0.0 0.0 0.0 24.0719 3.71389 -13.8093 0.190091 -0.00787436 -0.0281081 -10.1853 28.8861 1.61837 -22.0346 0.0 0.0 -0.0 0.0 -0.0 -6.6485 27.8429 -4.36716 -27.9235 -0.117983 -4.24135 31.7905 11.4466 4.2703 -17.8561 0.0 0.0 0.0 0.0 0.0 
3155.09413597 650.486 -1669.48331469 0.980811531469 51.857643074 2.35508448057 1.67152 0.114146 -0.912308 1.67197 0.171965 -0.903197 1.66922 0.333165 -0.856938 1.66825 0.193652 -0.898797 -17.3822 18.7031 9.29148 -18.3015 30.903 15.9672 -0.0 0.0 -0.0 3.50256 24.367 7.5323 -34.8515 -10.979 65.5846 0.863828 -23.1666 0.177059 -15.8335 -0.818533 1.84527 1.5615 15.711 16.277 -0.0 0.0 -0.0 10.3755 14.4614 -20.5507 -1.02742 47.8432 -52.4301 1.63981 39.0844 -0.582084 -8.12385 0.356047 -0.974766 -1.24438 14.6592 14.7378 0.0 0.0 0.0 25.2641 3.91095 -13.8396 -5.25172 0.180325 0.785531 -6.78487 28.9848 1.07371 -17.8553 0.0 0.0 -0.0 0.0 -0.0 -8.05976 28.3057 -3.9436 -26.6963 -0.15636 -4.05693 30.2592 8.57989 4.04719 -18.0097 0.0 0.0 0.0 0.0 0.0 
3155.09395762 650.486 -1669.46190008 0.982033303858 51.913594412 2.35353160422 1.67152 0.114146 -0.912308 1.67197 0.171965 -0.903197 1.66922 0.333165 -0.856938 1.66825 0.193652 -0.898797 -17.3822 18.7031 9.29148 -18.3015 30.903 15.9672 -0.0 0.0 -0.0 3.50256 24.367 7.5323 -34.8515 -10.979 65.5846 0.863828 -23.1666 0.177059 -15.8335 -0.818533 1.84527 1.5615 15.711 16.277 -0.0 0.0 -0.0 10.3755 14.4614 -20.5507 -1.02742 47.8432 -52.4301 1.63981 39.0844 -0.582084 -8.12385 0.356047 -0.974766 -1.24438 14.6592 14.7378 0.0 0.0 0.0 25.2641 3.91095 -13.8396 -5.25172 0.180325 0.785531 -6.78487 28.9848 1.07371 -17.8553 0.0 0.0 -0.0 0.0 -0.0 -8.05976 28.3057 -3.9436 -26.6963 -0.15636 -4.05693 30.2592 8.57989 4.04719 -18.0097 0.0 0.0 0.0 0.0 0.0 
3131.99328573 650.813 -1670.38892078 1.603450306 51.2390740978 1.55717923783 1.76854 0.018089 -0.946777 1.76903 0.0782955 -0.943708 1.76772 0.246832 -0.914217 1.76657 0.0993573 -0.941723 -18.7357 19.1169 12.4128 -19.5347 30.3614 19.3485 -0.0 0.0 -0.0 3.60099 23.7402 7.66452 -33.6111 -11.3157 66.0004 0.906516 -24.1827 0.194201 -16.0665 -0.834317 1.87058 1.51239 15.6535 15.9408 -0.0 0.0 -0.0 10.2166 15.0171 -20.1742 -3.51362 47.3724 -51.4603 1.67069 39.6082 -0.601657 -9.32866 0.420512 -1.11474 -0.679096 16.0825 11.4492 0.0 0.0 0.0 26.4459 3.75879 -13.2523 -10.497 0.287864 1.58299 -5.6342 28.9252 0.889661 -15.3287 0.0 0.0 -0.0 0.0 -0.0 -10.882 28.5955 -2.76093 -25.426 -0.191915 -3.86522 28.7829 6.08682 3.8451 -18.0587 0.0 0.0 0.0 0.0 0.0 
3080.68403463 649.471 -1673.68418987 2.10501769992 51.7454253525 1.1480257631 1.95422 -0.220306 -1.25106 1.95508 -0.140258 -1.26254 1.95817 0.0849731 -1.26746 1.95595 -0.116248 -1.26497 -19.2358 19.5726 13.324 -20.0676 30.9067 20.5348 -0.0 0.0 -0.0 3.43422 22.1938 7.41965 -31.0433 -12.787 66.1643 1.26037 -31.9772 0.361147 -16.04 -0.83252 1.86771 1.54936 14.5383 15.807 -0.0 0.0 -0.0 9.42377 15.5277 -18.3919 -8.03084 46.9645 -50.4561 1.6323 38.9557 -0.57735 -11.1399 0.522941 -1.32256 0.278135 17.3522 5.51925 0.0 0.0 0.0 25.4418 2.7956 -10.7172 -16.3583 0.321223 2.48128 3.82422 28.5392 -0.590816 -11.6661 0.0 0.0 -0.0 0.0 -0.0 -12.9914 30.6559 -2.96821 -27.9275 -0.117852 -4.24195 21.6453 1.5888 2.9655 -18.3752 0.0 0.0 0.0 0.0 0.0 
3036.22458727 662.907 -1684.17041702 3.25047150033 52.6565122537 0.601772023461 1.61319 -0.439435 -1.38254 1.61418 -0.350579 -1.4077 1.62298 -0.0879869 -1.44802 1.62019 -0.315547 -1.41596 -20.7114 19.6834 14.0986 -21.6768 31.1249 21.8062 -0.0 0.0 -0.0 3.62329 20.652 7.67624 -26.253 -15.5142 65.809 1.16907 -30.0751 0.314083 -17.4772 -0.932077 2.02244 1.21728 15.959 14.151 -0.0 0.0 -0.0 8.02526 14.0751 -15.4016 -12.0827 44.9762 -51.1083 1.7878 41.5251 -0.677832 -12.2158 0.586889 -1.44447 0.690653 19.217 3.56997 0.0 0.0 0.0 21.9992 0.158217 -8.13265 -16.2077 0.321517 2.45818 8.76473 27.5352 -1.32765 -10.693 0.0 0.0 -0.0 0.0 -0.0 -9.16115 31.2856 -5.6497 -33.858 0.122934 -5.11979 5.40216 1.41593 0.79027 -20.1252 0.0 0.0 0.0 0.0 0.0 
3036.32535298 662.907 -1685.09478905 3.22281448612 52.2808119852 0.636647381182 1.61319 -0.439435 -1.38254 1.61418 -0.350579 -1.4077 1.62298 -0.0879869 -1.44802 1.62019 -0.315547 -1.41596 -20.7114 19.6834 14.0986 -21.6768 31.1249 21.8062 -0.0 0.0 -0.0 3.62329 20.652 7.67624 -26.253 -15.5142 65.809 1.16907 -30.0751 0.314083 -17.4772 -0.932077 2.02244 1.21728 15.959 14.151 -0.0 0.0 -0.0 8.02526 14.0751 -15.4016 -12.0827 44.9762 -51.1083 1.7878 41.5251 -0.677832 -12.2158 0.586889 -1.44447 0.690653 19.217 3.56997 0.0 0.0 0.0 21.9992 0.158217 -8.13265 -16.2077 0.321517 2.45818 8.76473 27.5352 -1.32765 -10.693 0.0 0.0 -0.0 0.0 -0.0 -9.16115 31.2856 -5.6497 -33.858 0.122934 -5.11979 5.40216 1.41593 0.79027 -20.1252 0.0 0.0 0.0 0.0 0.0 
3016.32413639 664.79 -1688.38648093 3.18774839453 53.9145709634 0.752909694285 1.53953 -0.360775 -1.46393 1.54068 -0.266901 -1.48391 1.54778 0.0101951 -1.50768 1.54468 -0.228017 -1.49038 -21.2782 19.8386 14.2326 -22.3487 31.508 22.2246 -0.0 0.0 -0.0 3.7711 20.2506 7.89065 -23.3714 -17.1112 65.4785 1.10481 -28.6906 0.282551 -18.0769 -0.974767 2.08626 0.829181 16.3794 11.8414 -0.0 0.0 -0.0 6.80041 12.0331 -12.8701 -13.2496 43.5718 -51.8394 1.90147 43.2827 -0.754492 -15.2675 0.780625 -1.78353 1.31901 19.0785 -0.66275 0.0 0.0 0.0 20.7992 -1.04446 -6.2067 -14.8643 0.321451 2.25207 11.0197 27.2447 -1.65478 -9.07483 0.0 0.0 -0.0 0.0 -0.0 -6.14473 30.9961 -7.28029 -40.2555 0.483099 -6.034 1.30948 3.31807 0.195055 -20.0039 0.0 0.0 0.0 0.0 0.0 
2993.87081729 670.284 -1697.52484433 3.27681388505 54.1372230118 1.04340095438 1.43141 -0.226009 -1.62309 1.43286 -0.122284 -1.63418 1.43654 0.183178 -1.62848 1.43285 -0.0762731 -1.63697 -20.1986 21.8647 13.4014 -21.7111 35.56 22.206 -0.0 0.0 -0.0 3.76298 19.9682 7.87663 -21.2362 -18.7548 64.9745 1.03009 -27.0335 0.247627 -19.6821 -1.09231 2.2549 0.445653 17.5527 9.87536 -0.0 0.0 -0.0 6.1809 9.22935 -11.6969 -13.8725 42.6624 -53.6048 1.79301 41.6078 -0.68129 -17.2503 0.916103 -1.99818 1.26101 18.3647 -0.595972 0.0 0.0 0.0 17.9004 -4.98728 -5.49882 -13.5724 0.316829 2.05392 14.3431 25.5557 -2.10891 -9.04984 0.0 0.0 -0.0 0.0 -0.0 -2.39909 32.1775 -10.1443 -43.8117 0.726903 -6.52347 -10.9661 2.08644 -1.66638 -21.6447 0.0 0.0 0.0 0.0 0.0 
2974.93598438 676.072 -1706.61731106 3.57170145118 53.5303098026 1.38701111141 1.43543 -0.193181 -1.77294 1.43718 -0.0799909 -1.78164 1.43986 0.252036 -1.76554 1.43551 -0.0299146 -1.78318 -20.3302 21.9958 13.2005 -21.9386 35.9435 22.1732 -0.0 0.0 -0.0 3.99012 19.1399 8.21276 -17.4744 -19.7378 64.5504 1.00692 -26.5094 0.237191 -20.1772 -1.12952 2.30625 0.263353 18.4099 9.07166 -0.0 0.0 -0.0 5.58831 7.33503 -10.553 -14.8972 42.0551 -54.7411 1.71257 40.3065 -0.628558 -19.7282 1.09576 -2.25969 1.91984 20.1014 -4.18013 0.0 0.0 0.0 16.3152 -4.02717 -5.63034 -13.3668 0.315681 2.02239 16.8094 25.0781 -2.44278 -7.82794 0.0 0.0 -0.0 0.0 -0.0 0.68772 32.4812 -11.0457 -48.8153 1.12057 -7.18499 -16.3807 6.47599 -2.54722 -22.2155 0.0 0.0 0.0 0.0 0.0 
2948.23440341 680.026 -1712.90523266 4.20362029146 53.0899640877 0.718824525336 1.39578 -0.0770168 -1.89608 1.39778 0.0437698 -1.89714 1.39648 0.396563 -1.85576 1.39169 0.0985589 -1.89508 -19.8859 22.1324 12.7143 -21.5167 36.3375 21.6453 -0.0 0.0 -0.0 4.10537 18.5059 8.38648 -14.8152 -20.3734 64.2345 1.01825 -26.7662 0.24227 -20.8397 -1.18001 2.37446 0.11178 19.4952 8.55563 -0.0 0.0 -0.0 5.21321 5.4521 -9.87129 -15.0598 41.488 -56.4842 1.53259 37.2032 -0.515847 -21.5748 1.23694 -2.44945 2.11731 19.9638 -5.55411 0.0 0.0 0.0 12.6759 -4.79756 -5.23271 -12.3459 0.308308 1.86592 19.4731 23.6058 -2.77835 -7.03345 0.0 0.0 -0.0 0.0 -0.0 3.26403 32.7159 -10.4423 -54.0928 1.59699 -7.84333 -22.2246 9.10084 -3.5103 -23.9581 0.0 0.0 0.0 0.0 0.0 
2926.55000964 684.866 -1711.08504744 5.13376468286 55.0436016462 -0.0718734671489 1.46458 -0.174144 -1.98107 1.46677 -0.0477559 -1.98813 1.46861 0.32109 -1.96263 1.46324 0.00716393 -1.98869 -19.8593 21.9709 12.4057 -21.4903 36.1697 21.2836 -0.0 0.0 -0.0 4.19925 18.0918 8.5303 -13.1988 -21.1693 64.5222 1.09568 -28.4909 0.278182 -21.222 -1.2095 2.41355 -0.00178885 20.0495 8.08069 -0.0 0.0 -0.0 4.92453 3.90604 -9.35782 -16.0427 40.9978 -56.6737 1.38469 34.4457 -0.429257 -22.5326 1.31257 -2.54608 2.30401 19.9521 -6.80062 0.0 0.0 0.0 10.9046 -5.55069 -4.60923 -11.9403 0.304605 1.8038 20.4607 21.8789 -2.88292 -7.0296 0.0 0.0 -0.0 0.0 -0.0 5.01268 33.0277 -12.2004 -57.1423 1.89944 -8.20314 -23.0007 9.14067 -3.63359 -26.2841 0.0 0.0 0.0 0.0 0.0 
2925.20595032 684.866 -1702.02723327 5.416192549 57.1010935436 -0.412198220565 1.46458 -0.174144 -1.98107 1.46677 -0.0477559 -1.98813 1.46861 0.32109 -1.96263 1.46324 0.00716393 -1.98869 -19.8593 21.9709 12.4057 -21.4903 36.1697 21.2836 -0.0 0.0 -0.0 4.19925 18.0918 8.5303 -13.1988 -21.1693 64.5222 1.09568 -28.4909 0.278182 -21.222 -1.2095 2.41355 -0.00178885 20.0495 8.08069 -0.0 0.0 -0.0 4.92453 3.90604 -9.35782 -16.0427 40.9978 -56.6737 1.38469 34.4457 -0.429257 -22.5326 1.31257 -2.54608 2.30401 19.9521 -6.80062 0.0 0.0 0.0 10.9046 -5.55069 -4.60923 -11.9403 0.304605 1.8038 20.4607 21.8789 -2.88292 -7.0296 0.0 0.0 -0.0 0.0 -0.0 5.01268 33.0277 -12.2004 -57.1423 1.89944 -8.20314 -23.0007 9.14067 -3.63359 -26.2841 0.0 0.0 0.0 0.0 0.0 
2875.89956821 689.23 -1719.77945293 7.19714419911 54.5929283247 -0.672810256174 1.30206 -0.340366 -2.13925 1.30458 -0.203582 -2.15656 1.31269 0.204924 -2.15644 1.30622 -0.138135 -2.16174 -20.5156 21.5498 11.2036 -22.3552 36.0808 20.3291 -0.0 0.0 -0.0 4.28108 15.3362 8.65167 -8.6929 -23.5974 61.9407 1.22751 -31.3013 0.343908 -20.9713 -1.19013 2.38793 -0.0259016 18.8367 7.47272 -0.0 0.0 -0.0 4.2432 1.70789 -8.10645 -17.4928 40.2932 -58.8932 0.880228 23.5588 -0.183563 -24.645 1.48503 -2.75467 2.39447 17.8952 -8.37875 0.0 0.0 0.0 5.85781 -6.62232 -4.92769 -14.3042 0.319995 2.16614 26.3569 16.2232 -3.53672 -8.02851 0.0 0.0 -0.0 0.0 -0.0 14.829 29.4882 -17.8956 -64.9211 2.75414 -9.04439 -22.5263 5.93264 -3.50128 -33.7858 0.0 0.0 0.0 0.0 0.0 
